<?xml version="1.0" encoding="utf-8"?>
<!-- Generator: Adobe Illustrator 16.0.0, SVG Export Plug-In . SVG Version: 6.00 Build 0)  -->
<!DOCTYPE svg PUBLIC "-//W3C//DTD SVG 1.1//EN" "http://www.w3.org/Graphics/SVG/1.1/DTD/svg11.dtd">
<svg version="1.1" id="icons" xmlns="http://www.w3.org/2000/svg" xmlns:xlink="http://www.w3.org/1999/xlink" x="0px" y="0px"
	 width="24px" height="24px" viewBox="0 0 24 24" enable-background="new 0 0 24 24" xml:space="preserve">
<g>
	<rect x="12" y="21.028" fill="#757575" width="2" height="2"/>
	<rect x="15" y="18.028" fill="#757575" width="2" height="5"/>
	<rect x="18" y="15.028" fill="#757575" width="2" height="8"/>
	<rect x="21" y="12.028" fill="#757575" width="2" height="11"/>
	<path fill="#757575" d="M17,1.035H3c-1.654,0-3,1.346-3,3v9c0,1.654,1.346,3,3,3h13v-2H3c-0.552,0-1-0.449-1-1V4.243l6.117,5.964
		c0.52,0.51,1.202,0.763,1.885,0.763c0.678,0,1.355-0.251,1.87-0.753L18,4.375v7.653h2V4.035C20,2.381,18.654,1.035,17,1.035z
		 M10.483,8.777c-0.263,0.256-0.705,0.258-0.968,0l-5.89-5.742h12.88L10.483,8.777z"/>
</g>
</svg>
