<?xml version="1.0" encoding="utf-8"?>
<!-- Generator: Adobe Illustrator 16.0.0, SVG Export Plug-In . SVG Version: 6.00 Build 0)  -->
<!DOCTYPE svg PUBLIC "-//W3C//DTD SVG 1.1//EN" "http://www.w3.org/Graphics/SVG/1.1/DTD/svg11.dtd">
<svg version="1.1" id="icons" xmlns="http://www.w3.org/2000/svg" xmlns:xlink="http://www.w3.org/1999/xlink" x="0px" y="0px"
	 width="24px" height="24px" viewBox="0 0 24 24" enable-background="new 0 0 24 24" xml:space="preserve">
<g>
	<path fill="#757575" d="M21,4V3c0-1.654-1.346-3-3-3H3C1.346,0,0,1.346,0,3v10c0,1.654,1.346,3,3,3h1v5.414L9.414,16H10v-2H8.586
		L6,16.586V14H3c-0.552,0-1-0.449-1-1V3c0-0.551,0.448-1,1-1h15c0.552,0,1,0.449,1,1v1H21z"/>
	<path fill="#757575" d="M21,5h-7c-1.654,0-3,1.346-3,3v8c0,1.654,1.346,3,3,3h2.586L21,23.414V19c1.654,0,3-1.346,3-3V8
		C24,6.346,22.654,5,21,5z M22,16c0,0.551-0.448,1-1,1h-2v1.586L17.414,17H14c-0.552,0-1-0.449-1-1V8c0-0.551,0.448-1,1-1h7
		c0.552,0,1,0.449,1,1V16z"/>
</g>
</svg>
