<?xml version="1.0" encoding="utf-8"?>
<!-- Generator: Adobe Illustrator 16.0.0, SVG Export Plug-In . SVG Version: 6.00 Build 0)  -->
<!DOCTYPE svg PUBLIC "-//W3C//DTD SVG 1.1//EN" "http://www.w3.org/Graphics/SVG/1.1/DTD/svg11.dtd">
<svg version="1.1" id="icons" xmlns="http://www.w3.org/2000/svg" xmlns:xlink="http://www.w3.org/1999/xlink" x="0px" y="0px"
	 width="24px" height="24px" viewBox="0 0 24 24" enable-background="new 0 0 24 24" xml:space="preserve">
<g>
	<path fill="#757575" d="M21,4V3c0-1.654-1.346-3-3-3H9v2h9c0.552,0,1,0.449,1,1v1h-6c-1.654,0-3,1.346-3,3v7H9.12L6,16.773V14H3
		c-0.552,0-1-0.449-1-1v-1H0v1c0,1.654,1.346,3,3,3h1v5.228L9.88,16H10c0,1.654,1.346,3,3,3h3.586L21,23.414V19c1.654,0,3-1.346,3-3
		V8C24,6.408,22.804,4,21,4z M22,16c0,0.551-0.448,1-1,1h-2v1.586L17.414,17H13c-0.552,0-1-0.449-1-1h0.004v-2H12V7
		c0-0.551,0.448-1,1-1h7.997C21.32,6.044,22,7.18,22,8V16z"/>
	<path fill="#757575" d="M16.081,7.606l-3,7l1.838,0.788L15.517,14h2.967l0.598,1.394l1.838-0.788l-3-7H16.081z M16.374,12
		L17,10.539L17.626,12H16.374z"/>
	<path fill="#757575" d="M8,8V3c0-1.654-1.346-3-3-3H3C1.346,0,0,1.346,0,3v5c0,1.654,1.346,3,3,3h1.586l1.707,1.707l1.414-1.414
		L6.8,10.385C7.523,9.837,8,8.978,8,8z M2,8V3c0-0.551,0.448-1,1-1h2c0.552,0,1,0.449,1,1v5c0,0.551-0.448,1-1,1H3
		C2.448,9,2,8.551,2,8z"/>
</g>
</svg>
