<?xml version="1.0" encoding="utf-8"?>
<!-- Generator: Adobe Illustrator 16.0.0, SVG Export Plug-In . SVG Version: 6.00 Build 0)  -->
<!DOCTYPE svg PUBLIC "-//W3C//DTD SVG 1.1//EN" "http://www.w3.org/Graphics/SVG/1.1/DTD/svg11.dtd">
<svg version="1.1" id="icons" xmlns="http://www.w3.org/2000/svg" xmlns:xlink="http://www.w3.org/1999/xlink" x="0px" y="0px"
	 width="24px" height="24px" viewBox="0 0 24 24" enable-background="new 0 0 24 24" xml:space="preserve">
<g>
	<path fill="#757575" d="M15,12.996h-4v6.01h4v2.862l8.803-5.867L15,10.131V12.996z M17,13.869l3.197,2.132L17,18.133v-1.127h-4
		v-2.01h4V13.869z"/>
	<path fill="#757575" d="M8.117,9.179c0.52,0.509,1.202,0.763,1.885,0.763c0.678,0,1.355-0.252,1.87-0.754L18,3.347V10h2V3.007
		c0-1.654-1.346-3-3-3H3c-1.654,0-3,1.346-3,3v9c0,1.654,1.346,3,3,3h5.998v-2H3c-0.552,0-1-0.448-1-1V3.215L8.117,9.179z
		 M10.483,7.748c-0.264,0.256-0.706,0.258-0.968,0l-5.89-5.741h12.88L10.483,7.748z"/>
</g>
</svg>
