<?xml version="1.0" encoding="utf-8"?>
<!-- Generator: Adobe Illustrator 16.0.0, SVG Export Plug-In . SVG Version: 6.00 Build 0)  -->
<!DOCTYPE svg PUBLIC "-//W3C//DTD SVG 1.1//EN" "http://www.w3.org/Graphics/SVG/1.1/DTD/svg11.dtd">
<svg version="1.1" id="icons" xmlns="http://www.w3.org/2000/svg" xmlns:xlink="http://www.w3.org/1999/xlink" x="0px" y="0px"
	 width="24px" height="24px" viewBox="0 0 24 24" enable-background="new 0 0 24 24" xml:space="preserve">
<g>
	<path fill="#757575" d="M2.958,19h1v5.228L9.838,19h11.12c1.654,0,3-1.346,3-3V3c0-1.654-1.346-3-3-3h-18c-1.654,0-3,1.346-3,3v13
		C-0.042,17.654,1.304,19,2.958,19z M1.958,3c0-0.551,0.448-1,1-1h18c0.552,0,1,0.449,1,1v13c0,0.551-0.448,1-1,1H9.078l-3.12,2.773
		V17h-3c-0.552,0-1-0.449-1-1V3z"/>
	<path fill="#757575" d="M8.525,11.02l-1.517,1.516l1.414,1.415l1.517-1.517c0.315,0.186,0.655,0.33,1.019,0.424V15h2v-2.142
		c0.363-0.094,0.703-0.238,1.019-0.424l1.517,1.517l1.414-1.415l-1.516-1.517c0.186-0.316,0.33-0.656,0.425-1.02h2.142V8h-2.142
		c-0.095-0.363-0.238-0.703-0.425-1.018l1.517-1.516l-1.414-1.414l-1.516,1.515c-0.316-0.187-0.657-0.331-1.021-0.425V3h-2v2.142
		c-0.363,0.094-0.703,0.238-1.019,0.424L8.423,4.05L7.009,5.464L8.525,6.98C8.339,7.296,8.194,7.637,8.1,8H5.958v2H8.1
		C8.194,10.363,8.339,10.704,8.525,11.02z M11.958,7c1.103,0,2,0.897,2,2c0,1.103-0.897,2-2,2s-2-0.897-2-2
		C9.958,7.897,10.855,7,11.958,7z"/>
</g>
</svg>
