<?xml version="1.0" encoding="utf-8"?>
<!-- Generator: Adobe Illustrator 16.0.0, SVG Export Plug-In . SVG Version: 6.00 Build 0)  -->
<!DOCTYPE svg PUBLIC "-//W3C//DTD SVG 1.1//EN" "http://www.w3.org/Graphics/SVG/1.1/DTD/svg11.dtd">
<svg version="1.1" id="icons" xmlns="http://www.w3.org/2000/svg" xmlns:xlink="http://www.w3.org/1999/xlink" x="0px" y="0px"
	 width="24px" height="24px" viewBox="0 0 24 24" enable-background="new 0 0 24 24" xml:space="preserve">
<path fill="#757575" d="M14.33,12.8c0.565,0.564,1.318,0.876,2.121,0.876s1.556-0.312,2.121-0.877l4.138-4.138
	c1.169-1.17,1.169-3.073,0-4.243l-3.158-3.158c-1.129-1.131-3.113-1.131-4.242,0l-4.138,4.137c-0.565,0.565-0.877,1.318-0.877,2.122
	s0.312,1.557,0.877,2.122l0.865,0.866l-1.119,1.119l-0.866-0.865c-1.129-1.131-3.113-1.131-4.242,0l-4.138,4.137
	c-0.565,0.565-0.877,1.318-0.877,2.122s0.312,1.557,0.877,2.122L4.83,22.3c0.565,0.564,1.318,0.876,2.121,0.876
	s1.556-0.312,2.121-0.877l4.138-4.138c1.169-1.17,1.169-3.073,0-4.243l-0.878-0.878l1.119-1.119L14.33,12.8z M11.796,15.333
	c0.39,0.391,0.39,1.025,0,1.415l-4.138,4.137c-0.375,0.376-1.039,0.375-1.414,0l-3.158-3.159c-0.188-0.187-0.291-0.438-0.291-0.707
	s0.104-0.52,0.291-0.708l4.138-4.138c0.188-0.188,0.438-0.291,0.707-0.291s0.52,0.103,0.707,0.291l0.866,0.866l-2.253,2.253
	l1.414,1.414l2.253-2.252L11.796,15.333z M12.586,8.227c-0.188-0.187-0.291-0.438-0.291-0.707S12.398,7,12.586,6.812l4.138-4.138
	c0.188-0.188,0.438-0.291,0.707-0.291s0.52,0.103,0.707,0.291l3.158,3.159c0.39,0.391,0.39,1.025,0,1.415l-4.138,4.137
	c-0.375,0.376-1.039,0.375-1.414,0l-0.879-0.879l1.8-1.8l-1.414-1.414l-1.8,1.799L12.586,8.227z"/>
</svg>
