<?xml version="1.0" encoding="utf-8"?>
<!-- Generator: Adobe Illustrator 16.0.0, SVG Export Plug-In . SVG Version: 6.00 Build 0)  -->
<!DOCTYPE svg PUBLIC "-//W3C//DTD SVG 1.1//EN" "http://www.w3.org/Graphics/SVG/1.1/DTD/svg11.dtd">
<svg version="1.1" id="icons" xmlns="http://www.w3.org/2000/svg" xmlns:xlink="http://www.w3.org/1999/xlink" x="0px" y="0px"
	 width="24px" height="24px" viewBox="0 0 24 24" enable-background="new 0 0 24 24" xml:space="preserve">
<path fill="#757575" d="M12.013,23.093c1.049,0,2.115-0.15,3.169-0.467c1.464-0.439,2.793-1.158,3.951-2.138l-1.291-1.528
	c-0.948,0.802-2.036,1.391-3.234,1.75c-4.775,1.432-9.83-1.285-11.263-6.062C2.65,12.335,2.898,9.89,4.044,7.763
	c1.145-2.127,3.05-3.681,5.362-4.375c2.313-0.696,4.76-0.447,6.887,0.699c2.127,1.145,3.682,3.049,4.375,5.363
	c0.297,0.988,0.396,3.02,0.396,3.02v1.968c0,0.699-0.569,1.267-1.269,1.267c-0.698,0-1.267-0.568-1.267-1.267l-0.017-2.084
	c0.019-0.528-0.02-1.065-0.137-1.604c-0.644-2.967-3.313-5.12-6.344-5.12c-0.463,0-0.928,0.05-1.383,0.149
	C8.954,6.144,7.503,7.15,6.563,8.609c-0.939,1.459-1.254,3.197-0.887,4.892c0.644,2.968,3.313,5.121,6.345,5.121
	c0.462,0,0.927-0.049,1.382-0.148c1.499-0.325,2.762-1.149,3.66-2.256c0.584,0.893,1.589,1.486,2.732,1.486
	c1.803,0,3.269-1.465,3.269-3.267v-2.084c0,0-0.14-2.341-0.48-3.479c-0.848-2.825-2.745-5.15-5.343-6.549
	c-2.598-1.397-5.586-1.702-8.409-0.853c-2.825,0.848-5.151,2.746-6.55,5.343s-1.701,5.584-0.854,8.409
	C2.863,20.002,7.263,23.093,12.013,23.093z M12.979,16.519c-0.315,0.069-0.638,0.104-0.958,0.104c-2.098,0-3.944-1.491-4.39-3.544
	c-0.255-1.173-0.037-2.376,0.613-3.386c0.65-1.01,1.654-1.706,2.828-1.961c0.316-0.068,0.639-0.103,0.959-0.103
	c2.098,0,3.943,1.49,4.389,3.544C16.947,13.595,15.403,15.994,12.979,16.519z"/>
</svg>
