<?xml version="1.0" encoding="utf-8"?>
<!-- Generator: Adobe Illustrator 16.0.0, SVG Export Plug-In . SVG Version: 6.00 Build 0)  -->
<!DOCTYPE svg PUBLIC "-//W3C//DTD SVG 1.1//EN" "http://www.w3.org/Graphics/SVG/1.1/DTD/svg11.dtd">
<svg version="1.1" id="icons" xmlns="http://www.w3.org/2000/svg" xmlns:xlink="http://www.w3.org/1999/xlink" x="0px" y="0px"
	 width="24px" height="24px" viewBox="0 0 24 24" enable-background="new 0 0 24 24" xml:space="preserve">
<g>
	<path fill="#757575" d="M9,20v3h14V13H9v4H5v2h4h1h1v-3.131l5,3.332l5-3.332V21H11v-1H9z M13.303,15h5.395L16,16.799L13.303,15z"/>
	<path fill="#757575" d="M15,6V1H1v10h14V9h4V7h-4h-1h-1v2H3V3.869l5,3.332l5-3.332V6H15z M5.303,3h5.395L8,4.799L5.303,3z"/>
	<rect x="2" y="13" fill="#757575" width="5" height="2"/>
	<rect x="17" y="3" fill="#757575" width="5" height="2"/>
</g>
</svg>
