<?xml version="1.0" encoding="utf-8"?>
<!-- Generator: Adobe Illustrator 16.0.0, SVG Export Plug-In . SVG Version: 6.00 Build 0)  -->
<!DOCTYPE svg PUBLIC "-//W3C//DTD SVG 1.1//EN" "http://www.w3.org/Graphics/SVG/1.1/DTD/svg11.dtd">
<svg version="1.1" id="icons" xmlns="http://www.w3.org/2000/svg" xmlns:xlink="http://www.w3.org/1999/xlink" x="0px" y="0px"
	 width="24px" height="24px" viewBox="0 0 24 24" enable-background="new 0 0 24 24" xml:space="preserve">
<g>
	<polygon fill="#757575" points="21.004,23 21.004,16.42 22.293,17.707 23.707,16.293 20.004,12.594 16.301,16.293 17.715,17.707 
		19.004,16.42 19.004,23 	"/>
	<path fill="#757575" d="M17.998,1.007h-14c-1.654,0-3,1.346-3,3v9c0,1.654,1.346,3,3,3h11v-2h-11c-0.552,0-1-0.448-1-1V4.215
		l6.117,5.964c0.52,0.509,1.202,0.763,1.885,0.763c0.678,0,1.355-0.252,1.87-0.754l6.128-5.841v6.66h2v-7
		C20.998,2.353,19.652,1.007,17.998,1.007z M11.481,8.748c-0.263,0.257-0.705,0.258-0.968,0l-5.89-5.741h12.88L11.481,8.748z"/>
</g>
</svg>
