<?xml version="1.0" encoding="utf-8"?>
<!-- Generator: Adobe Illustrator 16.0.0, SVG Export Plug-In . SVG Version: 6.00 Build 0)  -->
<!DOCTYPE svg PUBLIC "-//W3C//DTD SVG 1.1//EN" "http://www.w3.org/Graphics/SVG/1.1/DTD/svg11.dtd">
<svg version="1.1" id="icons" xmlns="http://www.w3.org/2000/svg" xmlns:xlink="http://www.w3.org/1999/xlink" x="0px" y="0px"
	 width="24px" height="24px" viewBox="0 0 24 24" enable-background="new 0 0 24 24" xml:space="preserve">
<g>
	<path fill="#757575" d="M2.958,15h8.995v-2H2.958c-0.552,0-1-0.449-1-1V3.208l6.117,5.964c0.52,0.51,1.202,0.763,1.885,0.763
		c0.678,0,1.355-0.251,1.87-0.753l6.128-5.842V10h2V3c0-1.654-1.346-3-3-3h-14c-1.654,0-3,1.346-3,3v9
		C-0.042,13.654,1.304,15,2.958,15z M10.441,7.742c-0.263,0.256-0.705,0.257-0.968,0L3.584,2h12.88L10.441,7.742z"/>
	<path fill="#757575" d="M22.958,17c0-2.757-2.243-5-5-5s-5,2.243-5,5s2.243,5,5,5c0.755,0,1.463-0.18,2.105-0.481l2.188,2.188
		l1.414-1.414l-1.986-1.986C22.465,19.424,22.958,18.273,22.958,17z M14.958,17c0-1.654,1.346-3,3-3s3,1.346,3,3s-1.346,3-3,3
		S14.958,18.654,14.958,17z"/>
</g>
</svg>
