<?xml version="1.0" encoding="utf-8"?>
<!-- Generator: Adobe Illustrator 16.0.0, SVG Export Plug-In . SVG Version: 6.00 Build 0)  -->
<!DOCTYPE svg PUBLIC "-//W3C//DTD SVG 1.1//EN" "http://www.w3.org/Graphics/SVG/1.1/DTD/svg11.dtd">
<svg version="1.1" id="icons" xmlns="http://www.w3.org/2000/svg" xmlns:xlink="http://www.w3.org/1999/xlink" x="0px" y="0px"
	 width="24px" height="24px" viewBox="0 0 24 24" enable-background="new 0 0 24 24" xml:space="preserve">
<g>
	<path fill="#757575" d="M2.98,15h8v-2h-8c-0.552,0-1-0.449-1-1V3.208l6.117,5.964c0.52,0.51,1.202,0.763,1.885,0.763
		c0.678,0,1.355-0.251,1.87-0.753L17.98,3.34V10h2V3c0-1.654-1.346-3-3-3h-14c-1.654,0-3,1.346-3,3v9C-0.02,13.654,1.326,15,2.98,15
		z M10.464,7.742c-0.263,0.256-0.705,0.257-0.968,0L3.606,2h12.88L10.464,7.742z"/>
	<path fill="#757575" d="M17.504,11.004c-1.671,0-3.257,0.633-4.462,1.775c-0.26,0.242-0.5,0.511-0.715,0.795l1.598,1.205
		c0.146-0.194,0.309-0.376,0.489-0.545c0.836-0.793,1.934-1.23,3.09-1.23c2.479,0,4.496,2.018,4.496,4.496
		c0,2.48-2.017,4.498-4.496,4.498c-1.943,0-3.587-1.246-4.214-2.975h1.715l-3.022-4.055l-3.023,4.055h2.234
		c0.688,2.85,3.253,4.975,6.311,4.975c3.582,0,6.496-2.915,6.496-6.498C24,13.918,21.086,11.004,17.504,11.004z"/>
</g>
</svg>
