<?xml version="1.0" encoding="utf-8"?>
<!-- Generator: Adobe Illustrator 16.0.0, SVG Export Plug-In . SVG Version: 6.00 Build 0)  -->
<!DOCTYPE svg PUBLIC "-//W3C//DTD SVG 1.1//EN" "http://www.w3.org/Graphics/SVG/1.1/DTD/svg11.dtd">
<svg version="1.1" id="icons" xmlns="http://www.w3.org/2000/svg" xmlns:xlink="http://www.w3.org/1999/xlink" x="0px" y="0px"
	 width="24px" height="24px" viewBox="0 0 24 24" enable-background="new 0 0 24 24" xml:space="preserve">
<path fill="#757575" d="M12.637,3.94c1.9-1.9,4.995-1.9,6.896-0.001c1.898,1.9,1.898,4.994,0,6.895l-4.431,4.43l-0.003-0.002
	l-4.839,4.838c-1.163,1.162-3.193,1.162-4.354-0.001c-0.582-0.581-0.902-1.354-0.902-2.176c0-0.823,0.32-1.595,0.902-2.177
	l2.908-2.91l0.002,0.002l5.98-5.981c0.438-0.438,1.205-0.436,1.645,0c0.453,0.454,0.452,1.192,0,1.646l-7.94,7.94l1.414,1.414
	l7.941-7.94c1.231-1.233,1.23-3.24-0.001-4.474c-1.194-1.192-3.28-1.194-4.473,0l-4.887,4.887l-0.003-0.002l-4.001,4.002
	c-0.96,0.959-1.488,2.235-1.488,3.592c0,1.356,0.528,2.631,1.488,3.59C5.451,22.472,6.727,23,8.084,23
	c1.356,0,2.632-0.528,3.59-1.487l4.318-4.318l0.003,0.003l4.952-4.95c2.677-2.681,2.677-7.042-0.001-9.723
	c-2.682-2.677-7.042-2.677-9.724,0.002l-8.75,8.75l1.414,1.414L12.637,3.94z"/>
</svg>
