<?xml version="1.0" encoding="utf-8"?>
<!-- Generator: Adobe Illustrator 16.0.0, SVG Export Plug-In . SVG Version: 6.00 Build 0)  -->
<!DOCTYPE svg PUBLIC "-//W3C//DTD SVG 1.1//EN" "http://www.w3.org/Graphics/SVG/1.1/DTD/svg11.dtd">
<svg version="1.1" id="icons" xmlns="http://www.w3.org/2000/svg" xmlns:xlink="http://www.w3.org/1999/xlink" x="0px" y="0px"
	 width="24px" height="24px" viewBox="0 0 24 24" enable-background="new 0 0 24 24" xml:space="preserve">
<g>
	<path fill="#757575" d="M2.044,15h7v-2h-7c-0.552,0-1-0.449-1-1V3.208l6.117,5.964c0.52,0.51,1.202,0.763,1.885,0.763
		c0.678,0,1.355-0.251,1.87-0.753l6.128-5.842v4.619h2V3c0-1.654-1.346-3-3-3h-14c-1.654,0-3,1.346-3,3v9
		C-0.956,13.654,0.39,15,2.044,15z M9.527,7.742c-0.264,0.256-0.706,0.256-0.968,0L2.67,2h12.88L9.527,7.742z"/>
	<path fill="#757575" d="M20.242,11.344l-1.488,1.488c-0.524-0.348-1.116-0.602-1.754-0.73V10h-2v2.102
		c-0.638,0.129-1.229,0.383-1.754,0.73l-1.488-1.488l-1.415,1.414l1.488,1.488c-0.347,0.524-0.601,1.116-0.73,1.754H9v2h2.101
		c0.13,0.639,0.384,1.23,0.73,1.754l-1.488,1.489l1.414,1.414l1.488-1.489c0.525,0.348,1.117,0.602,1.755,0.73V24h2v-2.102
		c0.638-0.129,1.229-0.383,1.754-0.729l1.488,1.487l1.414-1.415l-1.488-1.487c0.348-0.524,0.602-1.116,0.731-1.755H23v-2h-2.101
		c-0.13-0.639-0.384-1.23-0.731-1.755l1.488-1.487L20.242,11.344z M16,20c-1.656,0-3-1.344-3-3s1.344-3,3-3s3,1.344,3,3
		S17.656,20,16,20z"/>
</g>
</svg>
