<?xml version="1.0" encoding="utf-8"?>
<!-- Generator: Adobe Illustrator 16.0.0, SVG Export Plug-In . SVG Version: 6.00 Build 0)  -->
<!DOCTYPE svg PUBLIC "-//W3C//DTD SVG 1.1//EN" "http://www.w3.org/Graphics/SVG/1.1/DTD/svg11.dtd">
<svg version="1.1" id="icons" xmlns="http://www.w3.org/2000/svg" xmlns:xlink="http://www.w3.org/1999/xlink" x="0px" y="0px"
	 width="24px" height="24px" viewBox="0 0 24 24" enable-background="new 0 0 24 24" xml:space="preserve">
<path fill="#757575" d="M1.665,23.707l1.293-1.292l0.917,0.917l9.697-7.542l9.8-9.79l-5.414-5.414l-2,2l-2-2L6.251,8.293
	l1.414,1.414l6.293-6.292L14.544,4l-6.293,6.293l-7.624,9.79L1.544,21l-1.293,1.293L1.665,23.707z M17.958,3.414L20.544,6
	l-0.586,0.586L17.372,4L17.958,3.414z M18.544,8l-5.586,5.586L10.372,11l5.586-5.586L18.544,8z M9.052,12.508l2.398,2.398
	l-7.409,5.762l-0.752-0.751L9.052,12.508z"/>
</svg>
