<?xml version="1.0" encoding="utf-8"?>
<!-- Generator: Adobe Illustrator 16.0.0, SVG Export Plug-In . SVG Version: 6.00 Build 0)  -->
<!DOCTYPE svg PUBLIC "-//W3C//DTD SVG 1.1//EN" "http://www.w3.org/Graphics/SVG/1.1/DTD/svg11.dtd">
<svg version="1.1" id="icons" xmlns="http://www.w3.org/2000/svg" xmlns:xlink="http://www.w3.org/1999/xlink" x="0px" y="0px"
	 width="24px" height="24px" viewBox="0 0 24 24" enable-background="new 0 0 24 24" xml:space="preserve">
<g>
	<path fill="#757575" d="M18.172,12.828l-0.666,0.666l-0.666-0.666c-1.105-1.104-2.896-1.104-4.001,0
		c-1.104,1.105-1.104,2.895,0,3.998l0.669,0.668l-0.001,0.001l3.999,3.997l4-3.997l-0.001-0.001l0.669-0.668
		c1.102-1.105,1.102-2.895,0-3.998C21.068,11.724,19.276,11.724,18.172,12.828z"/>
	<path fill="#757575" d="M18,10h2V3.007c0-1.654-1.346-3-3-3H3c-1.654,0-3,1.346-3,3v9c0,1.654,1.346,3,3,3h7v-2H3
		c-0.552,0-1-0.448-1-1V3.215l6.117,5.964c0.52,0.509,1.202,0.763,1.885,0.763c0.678,0,1.355-0.252,1.87-0.754L18,3.347V10z
		 M10.483,7.748c-0.263,0.256-0.705,0.258-0.968,0l-5.89-5.741h12.88L10.483,7.748z"/>
</g>
</svg>
