<?xml version="1.0" encoding="utf-8"?>
<!-- Generator: Adobe Illustrator 16.0.0, SVG Export Plug-In . SVG Version: 6.00 Build 0)  -->
<!DOCTYPE svg PUBLIC "-//W3C//DTD SVG 1.1//EN" "http://www.w3.org/Graphics/SVG/1.1/DTD/svg11.dtd">
<svg version="1.1" id="icons" xmlns="http://www.w3.org/2000/svg" xmlns:xlink="http://www.w3.org/1999/xlink" x="0px" y="0px"
	 width="24px" height="24px" viewBox="0 0 24 24" enable-background="new 0 0 24 24" xml:space="preserve">
<path fill="#757575" d="M12,0C5.383,0,0,5.383,0,12s5.383,12,12,12s12-5.383,12-12S18.617,0,12,0z M20.646,7h-1.889
	c-0.359-1.299-0.852-2.471-1.457-3.464C18.678,4.402,19.829,5.591,20.646,7z M17.416,12c0,1.04-0.093,2.049-0.262,3H13V9h4.154
	C17.323,9.951,17.416,10.96,17.416,12z M6.583,12c0-1.04,0.093-2.049,0.262-3H11v6H6.845C6.676,14.049,6.583,13.04,6.583,12z
	 M11,2.186V7H7.341C8.128,4.555,9.457,2.743,11,2.186z M11,17v4.814C9.457,21.258,8.128,19.445,7.341,17H11z M13,21.814V17h3.658
	C15.871,19.445,14.542,21.258,13,21.814z M13,7V2.186C14.542,2.743,15.871,4.555,16.658,7H13z M6.698,3.537
	C6.093,4.531,5.601,5.702,5.241,7H3.354C4.171,5.591,5.321,4.402,6.698,3.537z M2.461,9h2.356c-0.147,0.957-0.234,1.959-0.234,3
	s0.087,2.043,0.234,3H2.461C2.162,14.053,2,13.045,2,12S2.162,9.948,2.461,9z M3.354,17h1.888c0.359,1.299,0.852,2.47,1.457,3.463
	C5.321,19.598,4.171,18.409,3.354,17z M17.301,20.465c0.605-0.994,1.098-2.166,1.457-3.465h1.889
	C19.829,18.409,18.678,19.598,17.301,20.465z M21.539,15h-2.357c0.147-0.957,0.234-1.959,0.234-3s-0.087-2.043-0.234-3h2.357
	C21.838,9.948,22,10.955,22,12S21.838,14.053,21.539,15z"/>
</svg>
