<?xml version="1.0" encoding="utf-8"?>
<!-- Generator: Adobe Illustrator 16.0.0, SVG Export Plug-In . SVG Version: 6.00 Build 0)  -->
<!DOCTYPE svg PUBLIC "-//W3C//DTD SVG 1.1//EN" "http://www.w3.org/Graphics/SVG/1.1/DTD/svg11.dtd">
<svg version="1.1" id="icons" xmlns="http://www.w3.org/2000/svg" xmlns:xlink="http://www.w3.org/1999/xlink" x="0px" y="0px"
	 width="24px" height="24px" viewBox="0 0 24 24" enable-background="new 0 0 24 24" xml:space="preserve">
<g>
	<polygon fill="#757575" points="20.996,19.623 20.996,11.042 18.996,11.042 18.996,19.623 17.707,18.334 16.293,19.75 
		19.996,23.449 23.699,19.75 22.285,18.334 	"/>
	<path fill="#757575" d="M21,8.994V4.035c0-1.654-1.346-3-3-3H4c-1.654,0-3,1.346-3,3v9c0,1.654,1.346,3,3,3h13v-2H4
		c-0.552,0-1-0.449-1-1V4.243l6.117,5.964c0.52,0.51,1.202,0.763,1.885,0.763c0.678,0,1.355-0.251,1.87-0.753L19,4.375v4.619H21z
		 M11.483,8.777c-0.263,0.256-0.705,0.258-0.968,0l-5.89-5.742h12.88L11.483,8.777z"/>
</g>
</svg>
