<?xml version="1.0" encoding="utf-8"?>
<!-- Generator: Adobe Illustrator 16.0.0, SVG Export Plug-In . SVG Version: 6.00 Build 0)  -->
<!DOCTYPE svg PUBLIC "-//W3C//DTD SVG 1.1//EN" "http://www.w3.org/Graphics/SVG/1.1/DTD/svg11.dtd">
<svg version="1.1" id="icons" xmlns="http://www.w3.org/2000/svg" xmlns:xlink="http://www.w3.org/1999/xlink" x="0px" y="0px"
	 width="24px" height="24px" viewBox="0 0 24 24" enable-background="new 0 0 24 24" xml:space="preserve">
<g>
	<path fill="#757575" d="M3.958,21c0,1.654,1.346,3,3,3h10c1.654,0,3-1.346,3-3V6h2V4h-2h-3V3c0-1.103-0.897-2-2-2h-6
		c-1.103,0-2,0.897-2,2v1h-3h-2v2h2V21z M8.958,3h6v1h-6V3z M17.958,6v15c0,0.551-0.448,1-1,1h-10c-0.552,0-1-0.449-1-1V6H17.958z"
		/>
	<rect x="10.958" y="8" fill="#757575" width="2" height="12"/>
	<rect x="7.958" y="8" fill="#757575" width="2" height="12"/>
	<rect x="13.958" y="8" fill="#757575" width="2" height="12"/>
</g>
</svg>
