<?xml version="1.0" encoding="utf-8"?>
<!-- Generator: Adobe Illustrator 16.0.0, SVG Export Plug-In . SVG Version: 6.00 Build 0)  -->
<!DOCTYPE svg PUBLIC "-//W3C//DTD SVG 1.1//EN" "http://www.w3.org/Graphics/SVG/1.1/DTD/svg11.dtd">
<svg version="1.1" id="icons" xmlns="http://www.w3.org/2000/svg" xmlns:xlink="http://www.w3.org/1999/xlink" x="0px" y="0px"
	 width="24px" height="24px" viewBox="0 0 24 24" enable-background="new 0 0 24 24" xml:space="preserve">
<g>
	<path fill="#757575" d="M11,13.007H3c-0.552,0-1-0.448-1-1V3.215l6.117,5.964c0.52,0.509,1.202,0.763,1.885,0.763
		c0.678,0,1.355-0.252,1.87-0.754L18,3.347V9h2V3.007c0-1.654-1.346-3-3-3H3c-1.654,0-3,1.346-3,3v9c0,1.654,1.346,3,3,3h8V13.007z
		 M10.483,7.748c-0.263,0.256-0.705,0.258-0.968,0l-5.89-5.741h12.88L10.483,7.748z"/>
	<path fill="#757575" d="M17.429,10.929c-1.996,0-3.859,0.891-5.113,2.444l1.557,1.256c0.872-1.08,2.168-1.7,3.557-1.7
		c2.521,0,4.571,2.051,4.571,4.571c0,2.521-2.051,4.572-4.571,4.572c-2.029,0-3.733-1.338-4.329-3.172L15,17h-5v5l1.56-1.561
		c1.082,2.15,3.304,3.633,5.869,3.633c3.623,0,6.571-2.948,6.571-6.572C24,13.877,21.052,10.929,17.429,10.929z"/>
</g>
</svg>
