<?xml version="1.0" encoding="utf-8"?>
<!-- Generator: Adobe Illustrator 16.0.0, SVG Export Plug-In . SVG Version: 6.00 Build 0)  -->
<!DOCTYPE svg PUBLIC "-//W3C//DTD SVG 1.1//EN" "http://www.w3.org/Graphics/SVG/1.1/DTD/svg11.dtd">
<svg version="1.1" id="icons" xmlns="http://www.w3.org/2000/svg" xmlns:xlink="http://www.w3.org/1999/xlink" x="0px" y="0px"
	 width="24px" height="24px" viewBox="0 0 24 24" enable-background="new 0 0 24 24" xml:space="preserve">
<g>
	<path fill="#757575" d="M2.958,17h6h2h12V9c0-3.309-2.691-6-6-6H14.96v2h1.998c2.206,0,4,1.794,4,4v6h-10V8
		c0-1.13-0.391-2.162-1.025-3h2.025v3h2V2h2V0h-4v3h-7v0.102c-2.279,0.464-4,2.484-4,4.898v9h1H2.958z M5.958,5c1.654,0,3,1.346,3,3
		v7h-6V8C2.958,6.346,4.304,5,5.958,5z"/>
	<rect x="8.958" y="18" fill="#757575" width="2" height="5"/>
	<rect x="12.958" y="18" fill="#757575" width="2" height="5"/>
</g>
</svg>
