<?xml version="1.0" encoding="utf-8"?>
<!-- Generator: Adobe Illustrator 16.0.0, SVG Export Plug-In . SVG Version: 6.00 Build 0)  -->
<!DOCTYPE svg PUBLIC "-//W3C//DTD SVG 1.1//EN" "http://www.w3.org/Graphics/SVG/1.1/DTD/svg11.dtd">
<svg version="1.1" id="icons" xmlns="http://www.w3.org/2000/svg" xmlns:xlink="http://www.w3.org/1999/xlink" x="0px" y="0px"
	 width="24px" height="24px" viewBox="0 0 24 24" enable-background="new 0 0 24 24" xml:space="preserve">
<g>
	<path fill="#757575" d="M23,7.77V0H1v7.67L0,8.144V21c0,1.654,1.346,3,3,3h18c1.374,0,3-1.084,3-2.002L23.968,8.226L23,7.77z
		 M21.968,10.347l0.025,9.187l-5.129-4.977L21.968,10.347z M21,2v6.553l-8.156,6.732c-0.4,0.393-1.059,0.451-1.592-0.06L3,8.486V2
		H21z M2,19.705V10.25l5.217,4.259L2,19.705z M3,22c-0.138,0-0.27-0.028-0.39-0.079l6.164-6.14l1.146,0.934
		c0.577,0.564,1.345,0.875,2.161,0.875s1.584-0.311,2.099-0.818l1.132-0.934l6.226,6.04C21.37,21.948,21.187,22,21,22H3z"/>
	<path fill="#757575" d="M11.5,13c1.208,0,2.218-0.858,2.449-2H14V5h2V3h-4v5.051C11.838,8.018,11.671,8,11.5,8
		C10.119,8,9,9.119,9,10.5S10.119,13,11.5,13z"/>
</g>
</svg>
