<?xml version="1.0" encoding="utf-8"?>
<!-- Generator: Adobe Illustrator 16.0.0, SVG Export Plug-In . SVG Version: 6.00 Build 0)  -->
<!DOCTYPE svg PUBLIC "-//W3C//DTD SVG 1.1//EN" "http://www.w3.org/Graphics/SVG/1.1/DTD/svg11.dtd">
<svg version="1.1" id="icons" xmlns="http://www.w3.org/2000/svg" xmlns:xlink="http://www.w3.org/1999/xlink" x="0px" y="0px"
	 width="24px" height="24px" viewBox="0 0 24 24" enable-background="new 0 0 24 24" xml:space="preserve">
<g>
	<path fill="#757575" d="M20,8V3c0-1.654-1.346-3-3-3H3C1.346,0,0,1.346,0,3v9c0,1.654,1.346,3,3,3h5.998v-2H3c-0.552,0-1-0.449-1-1
		V3.208l6.117,5.964c0.52,0.51,1.202,0.763,1.885,0.763c0.678,0,1.355-0.251,1.87-0.753L18,3.34V8H20z M10.483,7.742
		c-0.264,0.256-0.706,0.257-0.968,0L3.626,2h12.88L10.483,7.742z"/>
	<path fill="#757575" d="M16.958,10c-3.859,0-7,3.141-7,7c0,3.86,3.141,7,7,7s7-3.14,7-7C23.958,13.141,20.817,10,16.958,10z
		 M11.958,17c0-2.757,2.243-5,5-5c1.018,0,1.962,0.309,2.753,0.833l-6.92,6.92C12.267,18.963,11.958,18.018,11.958,17z M16.958,22
		c-1.018,0-1.962-0.309-2.753-0.833l6.92-6.919c0.524,0.789,0.833,1.734,0.833,2.752C21.958,19.757,19.715,22,16.958,22z"/>
</g>
</svg>
