<?xml version="1.0" encoding="utf-8"?>
<!-- Generator: Adobe Illustrator 16.0.0, SVG Export Plug-In . SVG Version: 6.00 Build 0)  -->
<!DOCTYPE svg PUBLIC "-//W3C//DTD SVG 1.1//EN" "http://www.w3.org/Graphics/SVG/1.1/DTD/svg11.dtd">
<svg version="1.1" id="icons" xmlns="http://www.w3.org/2000/svg" xmlns:xlink="http://www.w3.org/1999/xlink" x="0px" y="0px"
	 width="24px" height="24px" viewBox="0 0 24 24" enable-background="new 0 0 24 24" xml:space="preserve">
<path fill="#757575" d="M3.958,23h16c1.654,0,3-1.346,3-3V8c0-1.654-1.346-3-3-3h-6.586l-3-3H3.958c-1.654,0-3,1.346-3,3v15
	C0.958,21.654,2.304,23,3.958,23z M19.958,21h-16c-0.552,0-1-0.449-1-1V10h18v10C20.958,20.551,20.51,21,19.958,21z M3.958,4h5.586
	l3,3h7.414c0.552,0,1,0.449,1,1h-18V5C2.958,4.449,3.406,4,3.958,4z"/>
</svg>
