<?xml version="1.0" encoding="utf-8"?>
<!-- Generator: Adobe Illustrator 16.0.0, SVG Export Plug-In . SVG Version: 6.00 Build 0)  -->
<!DOCTYPE svg PUBLIC "-//W3C//DTD SVG 1.1//EN" "http://www.w3.org/Graphics/SVG/1.1/DTD/svg11.dtd">
<svg version="1.1" id="icons" xmlns="http://www.w3.org/2000/svg" xmlns:xlink="http://www.w3.org/1999/xlink" x="0px" y="0px"
	 width="24px" height="24px" viewBox="0 0 24 24" enable-background="new 0 0 24 24" xml:space="preserve">
<g>
	<path fill="#757575" d="M23,7.77V0h-6v2h4v6.553l-8.156,6.732c-0.4,0.393-1.059,0.451-1.592-0.06L3,8.486V2h3.996V0H1v7.67L0,8.144
		V21c0,1.654,1.346,3,3,3h18c1.374,0,3-1.084,3-2.002L23.968,8.226L23,7.77z M21.993,19.533l-5.129-4.977l5.104-4.21L21.993,19.533z
		 M2,19.705V10.25l5.217,4.259L2,19.705z M3,22c-0.138,0-0.27-0.028-0.39-0.079l6.164-6.14l1.146,0.934
		c0.577,0.564,1.345,0.875,2.161,0.875s1.584-0.311,2.099-0.818l1.132-0.934l6.226,6.04C21.37,21.948,21.187,22,21,22H3z"/>
	<rect x="10" y="10" fill="#757575" width="2" height="2"/>
	<path fill="#757575" d="M12,8c0-0.551,0.448-1,1-1c1.654,0,3-1.346,3-3V3c0-1.654-1.346-3-3-3h-2C9.346,0,8,1.346,8,3h2
		c0-0.551,0.448-1,1-1h2c0.552,0,1,0.449,1,1v1c0,0.551-0.448,1-1,1c-1.654,0-3,1.346-3,3v1h2V8z"/>
</g>
</svg>
