<?xml version="1.0" encoding="utf-8"?>
<!-- Generator: Adobe Illustrator 16.0.0, SVG Export Plug-In . SVG Version: 6.00 Build 0)  -->
<!DOCTYPE svg PUBLIC "-//W3C//DTD SVG 1.1//EN" "http://www.w3.org/Graphics/SVG/1.1/DTD/svg11.dtd">
<svg version="1.1" id="icons" xmlns="http://www.w3.org/2000/svg" xmlns:xlink="http://www.w3.org/1999/xlink" x="0px" y="0px"
	 width="24px" height="24px" viewBox="0 0 24 24" enable-background="new 0 0 24 24" xml:space="preserve">
<g>
	<path fill="#757575" d="M8.117,9.179c0.52,0.509,1.202,0.763,1.885,0.763c0.678,0,1.355-0.252,1.87-0.754L18,3.347v4.66h2v-5
		c0-1.654-1.346-3-3-3H3c-1.654,0-3,1.346-3,3v9c0,1.654,1.346,3,3,3h5v-2H3c-0.552,0-1-0.448-1-1V3.215L8.117,9.179z M10.483,7.748
		c-0.263,0.256-0.705,0.258-0.968,0l-5.89-5.741h12.88L10.483,7.748z"/>
	<path fill="#757575" d="M16.5,9.428c-3.623,0-6.571,2.949-6.571,6.572h2c0-2.521,2.051-4.572,4.571-4.572
		c1.909,0,3.544,1.179,4.228,2.846L19,16h2.071h2H24v-5l-1.778,1.779C21.093,10.781,18.953,9.428,16.5,9.428z"/>
	<path fill="#757575" d="M16.5,21.572c-1.909,0-3.544-1.179-4.228-2.845L14,17h-2.071h-2H9v5l1.778-1.778
		c1.129,1.997,3.269,3.351,5.722,3.351c3.623,0,6.571-2.948,6.571-6.572h-2C21.071,19.521,19.021,21.572,16.5,21.572z"/>
</g>
</svg>
