<?xml version="1.0" encoding="utf-8"?>
<!-- Generator: Adobe Illustrator 16.0.0, SVG Export Plug-In . SVG Version: 6.00 Build 0)  -->
<!DOCTYPE svg PUBLIC "-//W3C//DTD SVG 1.1//EN" "http://www.w3.org/Graphics/SVG/1.1/DTD/svg11.dtd">
<svg version="1.1" id="icons" xmlns="http://www.w3.org/2000/svg" xmlns:xlink="http://www.w3.org/1999/xlink" x="0px" y="0px"
	 width="24px" height="24px" viewBox="0 0 24 24" enable-background="new 0 0 24 24" xml:space="preserve">
<g>
	<path fill="#757575" d="M22.703,4.418l-3.158-3.158c-1.129-1.131-3.113-1.131-4.242,0l-4.138,4.137
		C10.6,5.963,10.288,6.716,10.288,7.52s0.312,1.557,0.877,2.122l0.865,0.866l-1.119,1.119l-0.866-0.865
		c-1.129-1.131-3.113-1.131-4.242,0l-4.138,4.137C1.1,15.463,0.788,16.216,0.788,17.02s0.312,1.557,0.877,2.122L4.823,22.3
		c0.565,0.564,1.318,0.876,2.121,0.876s1.556-0.312,2.121-0.877l4.138-4.138c1.169-1.17,1.169-3.073,0-4.243l-0.878-0.878
		l1.119-1.119l0.879,0.879c0.565,0.564,1.318,0.876,2.121,0.876s1.556-0.312,2.121-0.877l4.138-4.138
		C23.872,7.492,23.872,5.588,22.703,4.418z M11.789,15.333c0.39,0.391,0.39,1.025,0,1.415l-4.138,4.137
		c-0.375,0.376-1.039,0.375-1.414,0l-3.158-3.159c-0.188-0.187-0.291-0.438-0.291-0.707s0.104-0.52,0.291-0.708l4.138-4.138
		c0.188-0.188,0.438-0.291,0.707-0.291s0.52,0.103,0.707,0.291l0.866,0.866l-2.253,2.253l1.414,1.414l2.253-2.252L11.789,15.333z
		 M21.289,7.248l-4.138,4.137c-0.375,0.376-1.039,0.375-1.414,0l-0.879-0.879l1.8-1.8l-1.414-1.414l-1.8,1.799l-0.865-0.866
		c-0.188-0.187-0.291-0.438-0.291-0.707S12.392,7,12.579,6.812l4.138-4.138c0.188-0.188,0.438-0.291,0.707-0.291
		s0.52,0.103,0.707,0.291l3.158,3.159C21.679,6.223,21.679,6.858,21.289,7.248z"/>
	<rect x="18.958" y="15" fill="#757575" width="3" height="2"/>
	<rect x="15.958" y="19" fill="#757575" width="2" height="3"/>
	<rect x="1.958" y="7" fill="#757575" width="3" height="2"/>
	<rect x="5.958" y="2" fill="#757575" width="2" height="3"/>
</g>
</svg>
