<?xml version="1.0" encoding="utf-8"?>
<!-- Generator: Adobe Illustrator 16.0.0, SVG Export Plug-In . SVG Version: 6.00 Build 0)  -->
<!DOCTYPE svg PUBLIC "-//W3C//DTD SVG 1.1//EN" "http://www.w3.org/Graphics/SVG/1.1/DTD/svg11.dtd">
<svg version="1.1" id="icons" xmlns="http://www.w3.org/2000/svg" xmlns:xlink="http://www.w3.org/1999/xlink" x="0px" y="0px"
	 width="24px" height="24px" viewBox="0 0 24 24" enable-background="new 0 0 24 24" xml:space="preserve">
<g>
	<path fill="#757575" d="M23.372,7l-4.414-4.414l-13,13V20h4.414L23.372,7z M20.544,7l-9.586,9.586L9.372,15l9.586-9.586L20.544,7z
		 M7.958,18v-1.586L9.544,18H7.958z"/>
	<polygon fill="#757575" points="16.958,17 14.958,17 14.958,22 1.958,22 1.958,2 14.958,2 14.958,4 16.958,4 16.958,0 -0.042,0 
		-0.042,24 16.958,24 	"/>
	<rect x="3.958" y="4" fill="#757575" width="8" height="2"/>
	<rect x="3.958" y="8" fill="#757575" width="5" height="2"/>
	<rect x="3.958" y="12" fill="#757575" width="2" height="2"/>
</g>
</svg>
