<?xml version="1.0" encoding="utf-8"?>
<!-- Generator: Adobe Illustrator 16.0.0, SVG Export Plug-In . SVG Version: 6.00 Build 0)  -->
<!DOCTYPE svg PUBLIC "-//W3C//DTD SVG 1.1//EN" "http://www.w3.org/Graphics/SVG/1.1/DTD/svg11.dtd">
<svg version="1.1" id="icons" xmlns="http://www.w3.org/2000/svg" xmlns:xlink="http://www.w3.org/1999/xlink" x="0px" y="0px"
	 width="24px" height="24px" viewBox="0 0 24 24" enable-background="new 0 0 24 24" xml:space="preserve">
<g>
	<path fill="#757575" d="M20,10V3c0-1.654-1.346-3-3-3H3C1.346,0,0,1.346,0,3v9c0,1.654,1.346,3,3,3h12v-2H3c-0.552,0-1-0.449-1-1
		V3.208l6.117,5.964c0.52,0.51,1.202,0.763,1.885,0.763c0.678,0,1.355-0.251,1.87-0.753L18,3.34V10H20z M10.483,7.742
		c-0.263,0.256-0.705,0.256-0.968,0L3.626,2h12.88L10.483,7.742z"/>
	<path fill="#757575" d="M23,15.5c0-1.93-1.57-3.5-3.5-3.5S16,13.57,16,15.5V16h-1v8h9v-8h-1V15.5z M18,15.5
		c0-0.827,0.673-1.5,1.5-1.5s1.5,0.673,1.5,1.5V16h-3V15.5z M22,22h-5v-4h5V22z"/>
</g>
</svg>
