<?xml version="1.0" encoding="utf-8"?>
<!-- Generator: Adobe Illustrator 16.0.0, SVG Export Plug-In . SVG Version: 6.00 Build 0)  -->
<!DOCTYPE svg PUBLIC "-//W3C//DTD SVG 1.1//EN" "http://www.w3.org/Graphics/SVG/1.1/DTD/svg11.dtd">
<svg version="1.1" id="icons" xmlns="http://www.w3.org/2000/svg" xmlns:xlink="http://www.w3.org/1999/xlink" x="0px" y="0px"
	 width="24px" height="24px" viewBox="0 0 24 24" enable-background="new 0 0 24 24" xml:space="preserve">
<g>
	<path fill="#757575" d="M13,19.051C12.838,19.018,12.671,19,12.5,19c-1.381,0-2.5,1.119-2.5,2.5s1.119,2.5,2.5,2.5
		c1.208,0,2.218-0.858,2.449-2H15v-7h6v4.051C20.838,19.018,20.671,19,20.5,19c-1.381,0-2.5,1.119-2.5,2.5s1.119,2.5,2.5,2.5
		c1.208,0,2.218-0.858,2.449-2H23v-9H13V19.051z"/>
	<path fill="#757575" d="M11,13.007H3c-0.552,0-1-0.448-1-1V3.215l6.117,5.964c0.52,0.509,1.202,0.763,1.885,0.763
		c0.678,0,1.355-0.252,1.87-0.754L18,3.347V11h2V3.007c0-1.654-1.346-3-3-3H3c-1.654,0-3,1.346-3,3v9c0,1.654,1.346,3,3,3h8V13.007z
		 M10.483,7.748c-0.263,0.256-0.705,0.258-0.968,0l-5.89-5.741h12.88L10.483,7.748z"/>
</g>
</svg>
