<?xml version="1.0" encoding="utf-8"?>
<!-- Generator: Adobe Illustrator 16.0.0, SVG Export Plug-In . SVG Version: 6.00 Build 0)  -->
<!DOCTYPE svg PUBLIC "-//W3C//DTD SVG 1.1//EN" "http://www.w3.org/Graphics/SVG/1.1/DTD/svg11.dtd">
<svg version="1.1" id="icons" xmlns="http://www.w3.org/2000/svg" xmlns:xlink="http://www.w3.org/1999/xlink" x="0px" y="0px"
	 width="24px" height="24px" viewBox="0 0 24 24" enable-background="new 0 0 24 24" xml:space="preserve">
<g>
	<path fill="#757575" d="M1,12.007V3.215l6.117,5.964c0.52,0.509,1.202,0.763,1.885,0.763c0.678,0,1.355-0.252,1.87-0.754L17,3.347
		v4.619h2V3.007c0-1.654-1.346-3-3-3H2c-1.654,0-3,1.346-3,3v9c0,1.654,1.346,3,3,3h9v-2H2C1.448,13.007,1,12.559,1,12.007z
		 M9.483,7.748c-0.263,0.256-0.705,0.258-0.968,0l-5.89-5.741h12.88L9.483,7.748z"/>
	<path fill="#757575" d="M17.001,10c-2.206,0-4,1.795-4,4v1.5V16v5.5c0,1.379,1.121,2.5,2.5,2.5s2.5-1.121,2.5-2.5V14h-2v7.5
		c0,0.275-0.225,0.5-0.5,0.5s-0.5-0.225-0.5-0.5V16v-0.5V14c0-1.104,0.897-2,2-2s2,0.896,2,2v7h2v-7
		C21.001,11.795,19.207,10,17.001,10z"/>
</g>
</svg>
