<?xml version="1.0" encoding="utf-8"?>
<!-- Generator: Adobe Illustrator 16.0.0, SVG Export Plug-In . SVG Version: 6.00 Build 0)  -->
<!DOCTYPE svg PUBLIC "-//W3C//DTD SVG 1.1//EN" "http://www.w3.org/Graphics/SVG/1.1/DTD/svg11.dtd">
<svg version="1.1" id="icons" xmlns="http://www.w3.org/2000/svg" xmlns:xlink="http://www.w3.org/1999/xlink" x="0px" y="0px"
	 width="24px" height="24px" viewBox="0 0 24 24" enable-background="new 0 0 24 24" xml:space="preserve">
<g>
	<path fill="#757575" d="M12,0C5.383,0,0,5.383,0,12s5.383,12,12,12s12-5.383,12-12S18.617,0,12,0z M12,22C6.486,22,2,17.515,2,12
		C2,6.486,6.486,2,12,2s10,4.486,10,10C22,17.515,17.514,22,12,22z"/>
	<path fill="#757575" d="M5,17h14V7H5V17z M7,15V9.869l5,3.332l5-3.332V15H7z M9.303,9h5.395L12,10.799L9.303,9z"/>
</g>
</svg>
