<?xml version="1.0" encoding="utf-8"?>
<!-- Generator: Adobe Illustrator 16.0.0, SVG Export Plug-In . SVG Version: 6.00 Build 0)  -->
<!DOCTYPE svg PUBLIC "-//W3C//DTD SVG 1.1//EN" "http://www.w3.org/Graphics/SVG/1.1/DTD/svg11.dtd">
<svg version="1.1" id="icons" xmlns="http://www.w3.org/2000/svg" xmlns:xlink="http://www.w3.org/1999/xlink" x="0px" y="0px"
	 width="24px" height="24px" viewBox="0 0 24 24" enable-background="new 0 0 24 24" xml:space="preserve">
<g>
	<path fill="#757575" d="M14.172,0.809c-1.136-1.043-3.042-1.045-4.178-0.004L0,7.465V21c0,1.654,1.346,3,3,3h18
		c1.654,0,3-1.346,3-3.002L23.967,7.47L14.172,0.809z M16.864,14.557l5.109-4.214l0.022,9.193L16.864,14.557z M11.174,2.422
		l0.145-0.117c0.402-0.393,1.123-0.393,1.525,0l8.609,5.874l-8.609,7.106c-0.413,0.404-1.11,0.405-1.588-0.057L2.641,8.107
		L11.174,2.422z M2,19.705v-9.533l5.231,4.322L2,19.705z M3,22c-0.138,0-0.27-0.028-0.39-0.079l6.166-6.142L8.73,15.732l1.189,0.982
		c0.604,0.59,1.397,0.881,2.182,0.881c0.766,0,1.521-0.277,2.078-0.824l1.132-0.934l6.191,6.006C21.354,21.934,21.188,22,21,22H3z"
		/>
	<polygon fill="#757575" points="9.709,9.707 10.998,8.42 10.998,12 12.998,12 12.998,8.42 14.287,9.707 15.701,8.293 11.998,4.593 
		8.295,8.293 	"/>
</g>
</svg>
