<?xml version="1.0" encoding="utf-8"?>
<!-- Generator: Adobe Illustrator 16.0.0, SVG Export Plug-In . SVG Version: 6.00 Build 0)  -->
<!DOCTYPE svg PUBLIC "-//W3C//DTD SVG 1.1//EN" "http://www.w3.org/Graphics/SVG/1.1/DTD/svg11.dtd">
<svg version="1.1" id="icons" xmlns="http://www.w3.org/2000/svg" xmlns:xlink="http://www.w3.org/1999/xlink" x="0px" y="0px"
	 width="24px" height="24px" viewBox="0 0 24 24" enable-background="new 0 0 24 24" xml:space="preserve">
<polygon fill="#757575" points="3.959,13 3.959,14 1.958,14 1.958,16 8.958,16 8.958,14 5.959,14 5.959,13 "/>
<path fill="#757575" d="M6.958,10H5.959V8.208l6.117,5.963c0.52,0.51,1.202,0.763,1.885,0.763c0.678,0,1.355-0.251,1.87-0.753
	l6.128-5.842V17c0,0.551-0.448,1-1,1h-14c-0.552,0-1-0.449-1-1h-2c0,1.654,1.346,3,3,3h14c1.654,0,3-1.346,3-3V8
	c0-1.654-1.346-3-3-3h-14c-1.654,0-3,1.346-3,3v2h-4.001v2h7V10z M14.442,12.742c-0.263,0.256-0.705,0.258-0.968,0L7.585,7h12.88
	L14.442,12.742z"/>
</svg>
