<?xml version="1.0" encoding="utf-8"?>
<!-- Generator: Adobe Illustrator 16.0.0, SVG Export Plug-In . SVG Version: 6.00 Build 0)  -->
<!DOCTYPE svg PUBLIC "-//W3C//DTD SVG 1.1//EN" "http://www.w3.org/Graphics/SVG/1.1/DTD/svg11.dtd">
<svg version="1.1" id="icons" xmlns="http://www.w3.org/2000/svg" xmlns:xlink="http://www.w3.org/1999/xlink" x="0px" y="0px"
	 width="24px" height="24px" viewBox="0 0 24 24" enable-background="new 0 0 24 24" xml:space="preserve">
<g>
	<path fill="#757575" d="M11,6h2c0.552,0,1,0.449,1,1h2c0-1.654-1.346-3-3-3V3h-2v1C9.346,4,8,5.346,8,7s1.346,3,3,3h2
		c0.552,0,1,0.449,1,1s-0.448,1-1,1h-2c-0.552,0-1-0.449-1-1H8c0,1.654,1.346,3,3,3v1h2v-1c1.654,0,3-1.346,3-3s-1.346-3-3-3h-2
		c-0.552,0-1-0.449-1-1S10.448,6,11,6z"/>
	<path fill="#757575" d="M21,0H3C1.346,0,0,1.346,0,3v13c0,1.654,1.346,3,3,3h1v5.228L9.88,19H21c1.654,0,3-1.346,3-3V3
		C24,1.346,22.654,0,21,0z M22,16c0,0.551-0.448,1-1,1H9.12L6,19.773V17H3c-0.552,0-1-0.449-1-1V3c0-0.551,0.448-1,1-1h18
		c0.552,0,1,0.449,1,1V16z"/>
</g>
</svg>
