<?xml version="1.0" encoding="utf-8"?>
<!-- Generator: Adobe Illustrator 16.0.0, SVG Export Plug-In . SVG Version: 6.00 Build 0)  -->
<!DOCTYPE svg PUBLIC "-//W3C//DTD SVG 1.1//EN" "http://www.w3.org/Graphics/SVG/1.1/DTD/svg11.dtd">
<svg version="1.1" id="icons" xmlns="http://www.w3.org/2000/svg" xmlns:xlink="http://www.w3.org/1999/xlink" x="0px" y="0px"
	 width="24px" height="24px" viewBox="0 0 24 24" enable-background="new 0 0 24 24" xml:space="preserve">
<g>
	<path fill="#757575" d="M2,12.007V3.215l6.117,5.964c0.52,0.509,1.202,0.763,1.885,0.763c0.678,0,1.355-0.252,1.87-0.754L18,3.347
		V9h2V3.007c0-1.654-1.346-3-3-3H3c-1.654,0-3,1.346-3,3v9c0,1.654,1.346,3,3,3h3v-2H3C2.448,13.007,2,12.559,2,12.007z
		 M10.483,7.748c-0.263,0.256-0.705,0.258-0.968,0l-5.89-5.741h12.88L10.483,7.748z"/>
	<circle fill="#757575" cx="12" cy="16" r="1"/>
	<path fill="#757575" d="M8,24h16V11H8V24z M10,13h12v6.617l-3-3.576l-3.416,4.071L14,18l-3,4h-1V13z"/>
</g>
</svg>
