<?xml version="1.0" encoding="utf-8"?>
<!-- Generator: Adobe Illustrator 16.0.0, SVG Export Plug-In . SVG Version: 6.00 Build 0)  -->
<!DOCTYPE svg PUBLIC "-//W3C//DTD SVG 1.1//EN" "http://www.w3.org/Graphics/SVG/1.1/DTD/svg11.dtd">
<svg version="1.1" id="icons" xmlns="http://www.w3.org/2000/svg" xmlns:xlink="http://www.w3.org/1999/xlink" x="0px" y="0px"
	 width="24px" height="24px" viewBox="0 0 24 24" enable-background="new 0 0 24 24" xml:space="preserve">
<g>
	<path fill="#757575" d="M19,9.586l-10,10V24h4.414l10-10L19,9.586z M20.586,14L14,20.586L12.414,19L19,12.414L20.586,14z M11,22
		v-1.586L12.586,22H11z"/>
	<path fill="#757575" d="M21,0H3C1.346,0,0,1.346,0,3v9c0,1.654,1.346,3,3,3h1v5.228L9.88,15h2.122v-2H9.12L6,15.773V13H3
		c-0.552,0-1-0.449-1-1V3c0-0.551,0.448-1,1-1h18c0.552,0,1,0.449,1,1v8h2V3C24,1.346,22.654,0,21,0z"/>
</g>
</svg>
