<?xml version="1.0" encoding="utf-8"?>
<!-- Generator: Adobe Illustrator 16.0.0, SVG Export Plug-In . SVG Version: 6.00 Build 0)  -->
<!DOCTYPE svg PUBLIC "-//W3C//DTD SVG 1.1//EN" "http://www.w3.org/Graphics/SVG/1.1/DTD/svg11.dtd">
<svg version="1.1" id="icons" xmlns="http://www.w3.org/2000/svg" xmlns:xlink="http://www.w3.org/1999/xlink" x="0px" y="0px"
	 width="24px" height="24px" viewBox="0 0 24 24" enable-background="new 0 0 24 24" xml:space="preserve">
<g>
	<path fill="#757575" d="M22.287,6.301L22.27,6.283l-0.006,0.006C21.879,6.108,21.453,6,21,6h-6v2h5.509l-7.665,7.471
		c-0.412,0.404-1.112,0.402-1.526-0.001L3.656,8H9V6H3C2.59,6,2.2,6.084,1.844,6.232L1.813,6.203L1.72,6.299
		C0.707,6.781,0,7.806,0,9v12c0,1.654,1.346,3,3,3h18c1.654,0,3-1.346,3-3V9C24,7.809,23.296,6.785,22.287,6.301z M16.768,14.439
		L22,9.34v10.195L16.768,14.439z M2,19.705V9.179l5.339,5.206L2,19.705z M3,22c-0.138,0-0.27-0.028-0.39-0.079l6.161-6.14L9.92,16.9
		c0.597,0.582,1.379,0.873,2.161,0.873s1.564-0.291,2.16-0.871l1.095-1.066l6.169,6.007C21.354,21.934,21.188,22,21,22H3z"/>
	<polygon fill="#757575" points="11.004,1.007 11.004,9.588 9.715,8.299 8.301,9.715 12.004,13.414 15.707,9.715 14.293,8.299 
		13.004,9.588 13.004,1.007 	"/>
</g>
</svg>
