<?xml version="1.0" encoding="utf-8"?>
<!-- Generator: Adobe Illustrator 16.0.0, SVG Export Plug-In . SVG Version: 6.00 Build 0)  -->
<!DOCTYPE svg PUBLIC "-//W3C//DTD SVG 1.1//EN" "http://www.w3.org/Graphics/SVG/1.1/DTD/svg11.dtd">
<svg version="1.1" id="icons" xmlns="http://www.w3.org/2000/svg" xmlns:xlink="http://www.w3.org/1999/xlink" x="0px" y="0px"
	 width="24px" height="24px" viewBox="0 0 24 24" enable-background="new 0 0 24 24" xml:space="preserve">
<g>
	<path fill="#757575" d="M2.451,15.259C1.238,11.619,2.169,7.672,4.882,4.96c1.899-1.899,4.425-2.945,7.109-2.946h0.002
		c1.938,0,3.787,0.552,5.382,1.569L14.958,6h6V0l-2.139,2.139c-1.993-1.377-4.351-2.125-6.826-2.125h-0.002
		c-3.22,0.001-6.246,1.255-8.523,3.532C0.216,6.796-0.9,11.527,0.555,15.892L2.451,15.259z"/>
	<path fill="#757575" d="M18.978,19.015c-3.373,3.372-8.562,3.835-12.441,1.408L8.958,18h-6v6l2.133-2.133
		c2.036,1.387,4.403,2.087,6.775,2.087c3.087,0,6.175-1.176,8.525-3.526c3.251-3.252,4.366-7.983,2.911-12.346l-1.896,0.633
		C22.62,12.355,21.689,16.301,18.978,19.015z"/>
	<path fill="#757575" d="M18.958,7h-14v10h14V7z M14.655,9l-2.697,1.798L9.261,9H14.655z M6.958,15V9.869l5,3.333l5-3.333V15H6.958z
		"/>
</g>
</svg>
