<?xml version="1.0" encoding="utf-8"?>
<!-- Generator: Adobe Illustrator 16.0.0, SVG Export Plug-In . SVG Version: 6.00 Build 0)  -->
<!DOCTYPE svg PUBLIC "-//W3C//DTD SVG 1.1//EN" "http://www.w3.org/Graphics/SVG/1.1/DTD/svg11.dtd">
<svg version="1.1" id="icons" xmlns="http://www.w3.org/2000/svg" xmlns:xlink="http://www.w3.org/1999/xlink" x="0px" y="0px"
	 width="24px" height="24px" viewBox="0 0 24 24" enable-background="new 0 0 24 24" xml:space="preserve">
<g>
	<polygon fill="#757575" points="22.079,16.465 19.958,18.586 17.837,16.465 16.423,17.879 18.544,20.001 16.423,22.122 
		17.837,23.536 19.958,21.414 22.079,23.536 23.493,22.122 21.372,20.001 23.493,17.879 	"/>
	<path fill="#757575" d="M2.958,15h14c1.654,0,3-1.346,3-3V3c0-1.654-1.346-3-3-3h-14c-1.654,0-3,1.346-3,3v9
		C-0.042,13.654,1.304,15,2.958,15z M16.958,13h-14c-0.552,0-1-0.449-1-1V3.208l6.117,5.964c0.52,0.51,1.202,0.763,1.885,0.763
		c0.678,0,1.355-0.251,1.87-0.753l6.128-5.842V12C17.958,12.551,17.51,13,16.958,13z M3.584,2h12.88l-6.022,5.742
		c-0.263,0.256-0.705,0.256-0.968,0L3.584,2z"/>
</g>
</svg>
