<?xml version="1.0" encoding="utf-8"?>
<!-- Generator: Adobe Illustrator 16.0.0, SVG Export Plug-In . SVG Version: 6.00 Build 0)  -->
<!DOCTYPE svg PUBLIC "-//W3C//DTD SVG 1.1//EN" "http://www.w3.org/Graphics/SVG/1.1/DTD/svg11.dtd">
<svg version="1.1" id="icons" xmlns="http://www.w3.org/2000/svg" xmlns:xlink="http://www.w3.org/1999/xlink" x="0px" y="0px"
	 width="24px" height="24px" viewBox="0 0 24 24" enable-background="new 0 0 24 24" xml:space="preserve">
<g>
	<rect x="22" y="22" fill="#757575" width="2" height="2"/>
	<rect x="22" y="12" fill="#757575" width="2" height="9"/>
	<path fill="#757575" d="M20,3c0-1.654-1.346-3-3-3H3C1.346,0,0,1.346,0,3v9c0,1.654,1.346,3,3,3h14c1.654,0,3-1.346,3-3V3z
		 M16.506,2l-6.022,5.742c-0.264,0.256-0.706,0.256-0.968,0L3.626,2H16.506z M17,13H3c-0.552,0-1-0.449-1-1V3.208l6.117,5.964
		c0.52,0.51,1.202,0.763,1.885,0.763c0.678,0,1.355-0.251,1.87-0.753L18,3.34V12C18,12.551,17.552,13,17,13z"/>
</g>
</svg>
